<mxfile host="65bd71144e">
    <diagram id="txk8-prZ28WiftSQLHnx" name="Page-1">
        <mxGraphModel dx="1382" dy="917" grid="1" gridSize="10" guides="1" tooltips="1" connect="1" arrows="1" fold="1" page="1" pageScale="1" pageWidth="1200" pageHeight="1920" math="0" shadow="0">
            <root>
                <mxCell id="0"/>
                <mxCell id="1" parent="0"/>
                <mxCell id="2" value="" style="swimlane;startSize=20;horizontal=0;childLayout=treeLayout;horizontalTree=1;resizable=0;containerType=tree;" vertex="1" parent="1">
                    <mxGeometry x="100" y="240" width="540" height="708" as="geometry"/>
                </mxCell>
                <mxCell id="3" value="Network" style="whiteSpace=wrap;html=1;" vertex="1" parent="2">
                    <mxGeometry x="40" y="379" width="100" height="40" as="geometry"/>
                </mxCell>
                <mxCell id="4" value="Routes&amp;nbsp;" style="whiteSpace=wrap;html=1;fillColor=#330066;fontColor=#FFFFFF;fontStyle=1" vertex="1" parent="2">
                    <mxGeometry x="190" y="110" width="100" height="40" as="geometry"/>
                </mxCell>
                <mxCell id="5" value="" style="edgeStyle=elbowEdgeStyle;elbow=horizontal;html=1;rounded=0;" edge="1" parent="2" source="3" target="4">
                    <mxGeometry relative="1" as="geometry"/>
                </mxCell>
                <mxCell id="8" value="" style="edgeStyle=elbowEdgeStyle;elbow=horizontal;html=1;rounded=0;" edge="1" target="9" source="4" parent="2">
                    <mxGeometry relative="1" as="geometry">
                        <mxPoint x="240" y="-26" as="sourcePoint"/>
                    </mxGeometry>
                </mxCell>
                <mxCell id="9" value="Let instances in a network send traffic directly to each other" style="whiteSpace=wrap;html=1;fillColor=#330066;fontColor=#FFFFFF;fontStyle=1" vertex="1" parent="2">
                    <mxGeometry x="340" y="20" width="180" height="50" as="geometry"/>
                </mxCell>
                <mxCell id="10" value="" style="edgeStyle=elbowEdgeStyle;elbow=horizontal;html=1;rounded=0;" edge="1" target="11" source="4" parent="2">
                    <mxGeometry relative="1" as="geometry">
                        <mxPoint x="390" y="-26" as="sourcePoint"/>
                    </mxGeometry>
                </mxCell>
                <mxCell id="11" value="A default route that directs packets to destinations that are outside the network" style="whiteSpace=wrap;html=1;fillColor=#330066;fontColor=#FFFFFF;fontStyle=1" vertex="1" parent="2">
                    <mxGeometry x="340" y="110" width="180" height="50" as="geometry"/>
                </mxCell>
                <mxCell id="12" value="" style="edgeStyle=elbowEdgeStyle;elbow=horizontal;html=1;rounded=0;" edge="1" target="13" source="4" parent="2">
                    <mxGeometry relative="1" as="geometry">
                        <mxPoint x="240" y="24" as="sourcePoint"/>
                    </mxGeometry>
                </mxCell>
                <mxCell id="13" value="A route is a mapping of and IP range to a destination" style="whiteSpace=wrap;html=1;fillColor=#000000;fontColor=#FFFFFF;fontStyle=1" vertex="1" parent="2">
                    <mxGeometry x="340" y="200" width="180" height="40" as="geometry"/>
                </mxCell>
                <mxCell id="16" value="" style="edgeStyle=elbowEdgeStyle;elbow=horizontal;html=1;rounded=0;" edge="1" target="17" source="3" parent="2">
                    <mxGeometry relative="1" as="geometry">
                        <mxPoint x="240" y="114" as="sourcePoint"/>
                    </mxGeometry>
                </mxCell>
                <mxCell id="17" value="Firewalls" style="whiteSpace=wrap;html=1;fillColor=#330066;fontColor=#FFFFFF;fontStyle=1" vertex="1" parent="2">
                    <mxGeometry x="190" y="440" width="100" height="40" as="geometry"/>
                </mxCell>
                <mxCell id="18" value="" style="edgeStyle=elbowEdgeStyle;elbow=horizontal;html=1;rounded=0;" edge="1" target="19" source="17" parent="2">
                    <mxGeometry relative="1" as="geometry">
                        <mxPoint x="240" y="280" as="sourcePoint"/>
                    </mxGeometry>
                </mxCell>
                <mxCell id="19" value="VPC network functions as a distributed firewall" style="whiteSpace=wrap;html=1;fillColor=#330066;fontColor=#FFFFFF;fontStyle=1" vertex="1" parent="2">
                    <mxGeometry x="340" y="280" width="180" height="40" as="geometry"/>
                </mxCell>
                <mxCell id="20" value="" style="edgeStyle=elbowEdgeStyle;elbow=horizontal;html=1;rounded=0;" edge="1" target="21" source="17" parent="2">
                    <mxGeometry relative="1" as="geometry">
                        <mxPoint x="390" y="369.5" as="sourcePoint"/>
                    </mxGeometry>
                </mxCell>
                <mxCell id="21" value="Firewall rules are applied to the network as a whole" style="whiteSpace=wrap;html=1;fillColor=#330066;fontColor=#FFFFFF;fontStyle=1" vertex="1" parent="2">
                    <mxGeometry x="340" y="360" width="180" height="40" as="geometry"/>
                </mxCell>
                <mxCell id="22" value="" style="edgeStyle=elbowEdgeStyle;elbow=horizontal;html=1;rounded=0;" edge="1" target="23" source="17" parent="2">
                    <mxGeometry relative="1" as="geometry">
                        <mxPoint x="390" y="385" as="sourcePoint"/>
                    </mxGeometry>
                </mxCell>
                <mxCell id="23" value="Connections are allowed or denied at the instance level" style="whiteSpace=wrap;html=1;fillColor=#330066;fontColor=#FFFFFF;fontStyle=1" vertex="1" parent="2">
                    <mxGeometry x="340" y="440" width="180" height="40" as="geometry"/>
                </mxCell>
                <mxCell id="24" value="" style="edgeStyle=elbowEdgeStyle;elbow=horizontal;html=1;rounded=0;" edge="1" target="25" source="17" parent="2">
                    <mxGeometry relative="1" as="geometry">
                        <mxPoint x="390" y="405" as="sourcePoint"/>
                    </mxGeometry>
                </mxCell>
                <mxCell id="25" value="Rules are stateful" style="whiteSpace=wrap;html=1;fillColor=#330066;fontColor=#FFFFFF;fontStyle=1" vertex="1" parent="2">
                    <mxGeometry x="340" y="520" width="180" height="40" as="geometry"/>
                </mxCell>
                <mxCell id="26" value="" style="edgeStyle=elbowEdgeStyle;elbow=horizontal;html=1;rounded=0;" edge="1" target="27" source="17" parent="2">
                    <mxGeometry relative="1" as="geometry">
                        <mxPoint x="390" y="425" as="sourcePoint"/>
                    </mxGeometry>
                </mxCell>
                <mxCell id="27" value="implied deny all ingress and allow all egress" style="whiteSpace=wrap;html=1;fillColor=#330066;fontColor=#FFFFFF;fontStyle=1" vertex="1" parent="2">
                    <mxGeometry x="340" y="600" width="180" height="40" as="geometry"/>
                </mxCell>
                <mxCell id="28" value="" style="edgeStyle=elbowEdgeStyle;elbow=horizontal;html=1;rounded=0;" edge="1" target="29" source="3" parent="2">
                    <mxGeometry relative="1" as="geometry">
                        <mxPoint x="240" y="280" as="sourcePoint"/>
                    </mxGeometry>
                </mxCell>
                <mxCell id="29" value="Pricing" style="whiteSpace=wrap;html=1;fillColor=#FF1212;fontColor=#FFFFFF;fontStyle=1" vertex="1" parent="2">
                    <mxGeometry x="190" y="648" width="100" height="40" as="geometry"/>
                </mxCell>
                <mxCell id="36" value="Pricing" style="shape=table;startSize=30;container=1;collapsible=0;childLayout=tableLayout;fontStyle=1;align=center;pointerEvents=1;fontColor=#FFFFFF;fillColor=#FF1212;" vertex="1" parent="1">
                    <mxGeometry x="770" y="390" width="415" height="293" as="geometry"/>
                </mxCell>
                <mxCell id="37" value="" style="shape=partialRectangle;html=1;whiteSpace=wrap;collapsible=0;dropTarget=0;pointerEvents=0;fillColor=none;top=0;left=0;bottom=0;right=0;points=[[0,0.5],[1,0.5]];portConstraint=eastwest;fontColor=#000000;" vertex="1" parent="36">
                    <mxGeometry y="30" width="415" height="23" as="geometry"/>
                </mxCell>
                <mxCell id="38" value="Traffic type" style="shape=partialRectangle;html=1;whiteSpace=wrap;connectable=0;fillColor=#999999;top=0;left=0;bottom=0;right=0;overflow=hidden;pointerEvents=1;fontColor=#FFFFFF;fontStyle=1" vertex="1" parent="37">
                    <mxGeometry width="261" height="23" as="geometry">
                        <mxRectangle width="261" height="23" as="alternateBounds"/>
                    </mxGeometry>
                </mxCell>
                <mxCell id="39" value="Price(USD)" style="shape=partialRectangle;html=1;whiteSpace=wrap;connectable=0;fillColor=#660000;top=0;left=0;bottom=0;right=0;overflow=hidden;pointerEvents=1;fontColor=#FFFFFF;fontStyle=1" vertex="1" parent="37">
                    <mxGeometry x="261" width="154" height="23" as="geometry">
                        <mxRectangle width="154" height="23" as="alternateBounds"/>
                    </mxGeometry>
                </mxCell>
                <mxCell id="41" value="" style="shape=partialRectangle;html=1;whiteSpace=wrap;collapsible=0;dropTarget=0;pointerEvents=0;fillColor=none;top=0;left=0;bottom=0;right=0;points=[[0,0.5],[1,0.5]];portConstraint=eastwest;fontColor=#000000;" vertex="1" parent="36">
                    <mxGeometry y="53" width="415" height="30" as="geometry"/>
                </mxCell>
                <mxCell id="42" value="Ingress" style="shape=partialRectangle;html=1;whiteSpace=wrap;connectable=0;fillColor=none;top=0;left=0;bottom=0;right=0;overflow=hidden;pointerEvents=1;fontColor=#000000;flipH=0;flipV=1;" vertex="1" parent="41">
                    <mxGeometry width="261" height="30" as="geometry">
                        <mxRectangle width="261" height="30" as="alternateBounds"/>
                    </mxGeometry>
                </mxCell>
                <mxCell id="43" value="No charge" style="shape=partialRectangle;html=1;whiteSpace=wrap;connectable=0;fillColor=none;top=0;left=0;bottom=0;right=0;overflow=hidden;pointerEvents=1;fontColor=#000000;" vertex="1" parent="41">
                    <mxGeometry x="261" width="154" height="30" as="geometry">
                        <mxRectangle width="154" height="30" as="alternateBounds"/>
                    </mxGeometry>
                </mxCell>
                <mxCell id="45" value="" style="shape=partialRectangle;html=1;whiteSpace=wrap;collapsible=0;dropTarget=0;pointerEvents=0;fillColor=none;top=0;left=0;bottom=0;right=0;points=[[0,0.5],[1,0.5]];portConstraint=eastwest;fontColor=#000000;" vertex="1" parent="36">
                    <mxGeometry y="83" width="415" height="30" as="geometry"/>
                </mxCell>
                <mxCell id="46" value="Egress to the same zone (internal IP address)" style="shape=partialRectangle;html=1;whiteSpace=wrap;connectable=0;fillColor=none;top=0;left=0;bottom=0;right=0;overflow=hidden;pointerEvents=1;fontColor=#000000;" vertex="1" parent="45">
                    <mxGeometry width="261" height="30" as="geometry">
                        <mxRectangle width="261" height="30" as="alternateBounds"/>
                    </mxGeometry>
                </mxCell>
                <mxCell id="47" value="No charge" style="shape=partialRectangle;html=1;whiteSpace=wrap;connectable=0;fillColor=none;top=0;left=0;bottom=0;right=0;overflow=hidden;pointerEvents=1;fontColor=#000000;" vertex="1" parent="45">
                    <mxGeometry x="261" width="154" height="30" as="geometry">
                        <mxRectangle width="154" height="30" as="alternateBounds"/>
                    </mxGeometry>
                </mxCell>
                <mxCell id="49" style="shape=partialRectangle;html=1;whiteSpace=wrap;collapsible=0;dropTarget=0;pointerEvents=0;fillColor=none;top=0;left=0;bottom=0;right=0;points=[[0,0.5],[1,0.5]];portConstraint=eastwest;fontColor=#000000;" vertex="1" parent="36">
                    <mxGeometry y="113" width="415" height="30" as="geometry"/>
                </mxCell>
                <mxCell id="50" value="Egress to Google products (Youtube,Map)" style="shape=partialRectangle;html=1;whiteSpace=wrap;connectable=0;fillColor=none;top=0;left=0;bottom=0;right=0;overflow=hidden;pointerEvents=1;fontColor=#000000;" vertex="1" parent="49">
                    <mxGeometry width="261" height="30" as="geometry">
                        <mxRectangle width="261" height="30" as="alternateBounds"/>
                    </mxGeometry>
                </mxCell>
                <mxCell id="51" value="No charge" style="shape=partialRectangle;html=1;whiteSpace=wrap;connectable=0;fillColor=none;top=0;left=0;bottom=0;right=0;overflow=hidden;pointerEvents=1;fontColor=#000000;" vertex="1" parent="49">
                    <mxGeometry x="261" width="154" height="30" as="geometry">
                        <mxRectangle width="154" height="30" as="alternateBounds"/>
                    </mxGeometry>
                </mxCell>
                <mxCell id="52" style="shape=partialRectangle;html=1;whiteSpace=wrap;collapsible=0;dropTarget=0;pointerEvents=0;fillColor=none;top=0;left=0;bottom=0;right=0;points=[[0,0.5],[1,0.5]];portConstraint=eastwest;fontColor=#000000;" vertex="1" parent="36">
                    <mxGeometry y="143" width="415" height="30" as="geometry"/>
                </mxCell>
                <mxCell id="53" value="Egress to a different GCP service (within same region)" style="shape=partialRectangle;html=1;whiteSpace=wrap;connectable=0;fillColor=none;top=0;left=0;bottom=0;right=0;overflow=hidden;pointerEvents=1;fontColor=#000000;" vertex="1" parent="52">
                    <mxGeometry width="261" height="30" as="geometry">
                        <mxRectangle width="261" height="30" as="alternateBounds"/>
                    </mxGeometry>
                </mxCell>
                <mxCell id="54" value="No charge" style="shape=partialRectangle;html=1;whiteSpace=wrap;connectable=0;fillColor=none;top=0;left=0;bottom=0;right=0;overflow=hidden;pointerEvents=1;fontColor=#000000;" vertex="1" parent="52">
                    <mxGeometry x="261" width="154" height="30" as="geometry">
                        <mxRectangle width="154" height="30" as="alternateBounds"/>
                    </mxGeometry>
                </mxCell>
                <mxCell id="55" style="shape=partialRectangle;html=1;whiteSpace=wrap;collapsible=0;dropTarget=0;pointerEvents=0;fillColor=none;top=0;left=0;bottom=0;right=0;points=[[0,0.5],[1,0.5]];portConstraint=eastwest;fontColor=#000000;" vertex="1" parent="36">
                    <mxGeometry y="173" width="415" height="30" as="geometry"/>
                </mxCell>
                <mxCell id="56" value="Egress between zones in the same region (per GB)" style="shape=partialRectangle;html=1;whiteSpace=wrap;connectable=0;fillColor=none;top=0;left=0;bottom=0;right=0;overflow=hidden;pointerEvents=1;fontColor=#000000;" vertex="1" parent="55">
                    <mxGeometry width="261" height="30" as="geometry">
                        <mxRectangle width="261" height="30" as="alternateBounds"/>
                    </mxGeometry>
                </mxCell>
                <mxCell id="57" value="$ 0.01" style="shape=partialRectangle;html=1;whiteSpace=wrap;connectable=0;fillColor=none;top=0;left=0;bottom=0;right=0;overflow=hidden;pointerEvents=1;fontColor=#000000;" vertex="1" parent="55">
                    <mxGeometry x="261" width="154" height="30" as="geometry">
                        <mxRectangle width="154" height="30" as="alternateBounds"/>
                    </mxGeometry>
                </mxCell>
                <mxCell id="58" style="shape=partialRectangle;html=1;whiteSpace=wrap;collapsible=0;dropTarget=0;pointerEvents=0;fillColor=none;top=0;left=0;bottom=0;right=0;points=[[0,0.5],[1,0.5]];portConstraint=eastwest;fontColor=#000000;" vertex="1" parent="36">
                    <mxGeometry y="203" width="415" height="30" as="geometry"/>
                </mxCell>
                <mxCell id="59" value="Egress to the same zone (external IP address , Per GB)" style="shape=partialRectangle;html=1;whiteSpace=wrap;connectable=0;fillColor=none;top=0;left=0;bottom=0;right=0;overflow=hidden;pointerEvents=1;fontColor=#000000;" vertex="1" parent="58">
                    <mxGeometry width="261" height="30" as="geometry">
                        <mxRectangle width="261" height="30" as="alternateBounds"/>
                    </mxGeometry>
                </mxCell>
                <mxCell id="60" value="$ 0.01" style="shape=partialRectangle;html=1;whiteSpace=wrap;connectable=0;fillColor=none;top=0;left=0;bottom=0;right=0;overflow=hidden;pointerEvents=1;fontColor=#000000;" vertex="1" parent="58">
                    <mxGeometry x="261" width="154" height="30" as="geometry">
                        <mxRectangle width="154" height="30" as="alternateBounds"/>
                    </mxGeometry>
                </mxCell>
                <mxCell id="62" style="shape=partialRectangle;html=1;whiteSpace=wrap;collapsible=0;dropTarget=0;pointerEvents=0;fillColor=none;top=0;left=0;bottom=0;right=0;points=[[0,0.5],[1,0.5]];portConstraint=eastwest;fontColor=#000000;" vertex="1" parent="36">
                    <mxGeometry y="233" width="415" height="30" as="geometry"/>
                </mxCell>
                <mxCell id="63" value="Egress between regions with the US and Canada (per GB)" style="shape=partialRectangle;html=1;whiteSpace=wrap;connectable=0;fillColor=none;top=0;left=0;bottom=0;right=0;overflow=hidden;pointerEvents=1;fontColor=#000000;" vertex="1" parent="62">
                    <mxGeometry width="261" height="30" as="geometry">
                        <mxRectangle width="261" height="30" as="alternateBounds"/>
                    </mxGeometry>
                </mxCell>
                <mxCell id="64" value="$0.01" style="shape=partialRectangle;html=1;whiteSpace=wrap;connectable=0;fillColor=none;top=0;left=0;bottom=0;right=0;overflow=hidden;pointerEvents=1;fontColor=#000000;" vertex="1" parent="62">
                    <mxGeometry x="261" width="154" height="30" as="geometry">
                        <mxRectangle width="154" height="30" as="alternateBounds"/>
                    </mxGeometry>
                </mxCell>
                <mxCell id="65" style="shape=partialRectangle;html=1;whiteSpace=wrap;collapsible=0;dropTarget=0;pointerEvents=0;fillColor=none;top=0;left=0;bottom=0;right=0;points=[[0,0.5],[1,0.5]];portConstraint=eastwest;fontColor=#000000;" vertex="1" parent="36">
                    <mxGeometry y="263" width="415" height="30" as="geometry"/>
                </mxCell>
                <mxCell id="66" value="Egress between regions, not including traffic between US regions" style="shape=partialRectangle;html=1;whiteSpace=wrap;connectable=0;fillColor=none;top=0;left=0;bottom=0;right=0;overflow=hidden;pointerEvents=1;fontColor=#000000;" vertex="1" parent="65">
                    <mxGeometry width="261" height="30" as="geometry">
                        <mxRectangle width="261" height="30" as="alternateBounds"/>
                    </mxGeometry>
                </mxCell>
                <mxCell id="67" value="Varies by region" style="shape=partialRectangle;html=1;whiteSpace=wrap;connectable=0;fillColor=none;top=0;left=0;bottom=0;right=0;overflow=hidden;pointerEvents=1;fontColor=#000000;" vertex="1" parent="65">
                    <mxGeometry x="261" width="154" height="30" as="geometry">
                        <mxRectangle width="154" height="30" as="alternateBounds"/>
                    </mxGeometry>
                </mxCell>
                <mxCell id="68" style="edgeStyle=elbowEdgeStyle;html=1;entryX=-0.004;entryY=0.038;entryDx=0;entryDy=0;entryPerimeter=0;fontColor=#FFFFFF;" edge="1" parent="1" source="29" target="36">
                    <mxGeometry relative="1" as="geometry">
                        <Array as="points">
                            <mxPoint x="700" y="660"/>
                        </Array>
                    </mxGeometry>
                </mxCell>
                <mxCell id="69" value="External IP address pricing (us-central1)" style="shape=table;startSize=30;container=1;collapsible=0;childLayout=tableLayout;fontStyle=1;align=center;pointerEvents=1;fontColor=#FFFFFF;fillColor=#FF1212;" vertex="1" parent="1">
                    <mxGeometry x="770" y="730" width="415" height="173" as="geometry"/>
                </mxCell>
                <mxCell id="70" value="" style="shape=partialRectangle;html=1;whiteSpace=wrap;collapsible=0;dropTarget=0;pointerEvents=0;fillColor=none;top=0;left=0;bottom=0;right=0;points=[[0,0.5],[1,0.5]];portConstraint=eastwest;fontColor=#000000;" vertex="1" parent="69">
                    <mxGeometry y="30" width="415" height="23" as="geometry"/>
                </mxCell>
                <mxCell id="71" value="Traffic type" style="shape=partialRectangle;html=1;whiteSpace=wrap;connectable=0;fillColor=#999999;top=0;left=0;bottom=0;right=0;overflow=hidden;pointerEvents=1;fontColor=#FFFFFF;fontStyle=1" vertex="1" parent="70">
                    <mxGeometry width="261" height="23" as="geometry">
                        <mxRectangle width="261" height="23" as="alternateBounds"/>
                    </mxGeometry>
                </mxCell>
                <mxCell id="72" value="Price/Hour(USD)" style="shape=partialRectangle;html=1;whiteSpace=wrap;connectable=0;fillColor=#660000;top=0;left=0;bottom=0;right=0;overflow=hidden;pointerEvents=1;fontColor=#FFFFFF;fontStyle=1" vertex="1" parent="70">
                    <mxGeometry x="261" width="154" height="23" as="geometry">
                        <mxRectangle width="154" height="23" as="alternateBounds"/>
                    </mxGeometry>
                </mxCell>
                <mxCell id="73" value="" style="shape=partialRectangle;html=1;whiteSpace=wrap;collapsible=0;dropTarget=0;pointerEvents=0;fillColor=none;top=0;left=0;bottom=0;right=0;points=[[0,0.5],[1,0.5]];portConstraint=eastwest;fontColor=#000000;" vertex="1" parent="69">
                    <mxGeometry y="53" width="415" height="30" as="geometry"/>
                </mxCell>
                <mxCell id="74" value="Static IP address (assigned but unused)" style="shape=partialRectangle;html=1;whiteSpace=wrap;connectable=0;fillColor=none;top=0;left=0;bottom=0;right=0;overflow=hidden;pointerEvents=1;fontColor=#000000;flipH=0;flipV=1;" vertex="1" parent="73">
                    <mxGeometry width="261" height="30" as="geometry">
                        <mxRectangle width="261" height="30" as="alternateBounds"/>
                    </mxGeometry>
                </mxCell>
                <mxCell id="75" value="$ 0.01" style="shape=partialRectangle;html=1;whiteSpace=wrap;connectable=0;fillColor=none;top=0;left=0;bottom=0;right=0;overflow=hidden;pointerEvents=1;fontColor=#000000;" vertex="1" parent="73">
                    <mxGeometry x="261" width="154" height="30" as="geometry">
                        <mxRectangle width="154" height="30" as="alternateBounds"/>
                    </mxGeometry>
                </mxCell>
                <mxCell id="76" value="" style="shape=partialRectangle;html=1;whiteSpace=wrap;collapsible=0;dropTarget=0;pointerEvents=0;fillColor=none;top=0;left=0;bottom=0;right=0;points=[[0,0.5],[1,0.5]];portConstraint=eastwest;fontColor=#000000;" vertex="1" parent="69">
                    <mxGeometry y="83" width="415" height="30" as="geometry"/>
                </mxCell>
                <mxCell id="77" value="Static and ephemeral IP addresses in use on standard VM instances&amp;nbsp;" style="shape=partialRectangle;html=1;whiteSpace=wrap;connectable=0;fillColor=none;top=0;left=0;bottom=0;right=0;overflow=hidden;pointerEvents=1;fontColor=#000000;" vertex="1" parent="76">
                    <mxGeometry width="261" height="30" as="geometry">
                        <mxRectangle width="261" height="30" as="alternateBounds"/>
                    </mxGeometry>
                </mxCell>
                <mxCell id="78" value="$ 0.004" style="shape=partialRectangle;html=1;whiteSpace=wrap;connectable=0;fillColor=none;top=0;left=0;bottom=0;right=0;overflow=hidden;pointerEvents=1;fontColor=#000000;" vertex="1" parent="76">
                    <mxGeometry x="261" width="154" height="30" as="geometry">
                        <mxRectangle width="154" height="30" as="alternateBounds"/>
                    </mxGeometry>
                </mxCell>
                <mxCell id="79" style="shape=partialRectangle;html=1;whiteSpace=wrap;collapsible=0;dropTarget=0;pointerEvents=0;fillColor=none;top=0;left=0;bottom=0;right=0;points=[[0,0.5],[1,0.5]];portConstraint=eastwest;fontColor=#000000;" vertex="1" parent="69">
                    <mxGeometry y="113" width="415" height="30" as="geometry"/>
                </mxCell>
                <mxCell id="80" value="Static and ephemeral IP addresses in use on preemptible VM instances&amp;nbsp;" style="shape=partialRectangle;html=1;whiteSpace=wrap;connectable=0;fillColor=none;top=0;left=0;bottom=0;right=0;overflow=hidden;pointerEvents=1;fontColor=#000000;" vertex="1" parent="79">
                    <mxGeometry width="261" height="30" as="geometry">
                        <mxRectangle width="261" height="30" as="alternateBounds"/>
                    </mxGeometry>
                </mxCell>
                <mxCell id="81" value="$ 0.002" style="shape=partialRectangle;html=1;whiteSpace=wrap;connectable=0;fillColor=none;top=0;left=0;bottom=0;right=0;overflow=hidden;pointerEvents=1;fontColor=#000000;" vertex="1" parent="79">
                    <mxGeometry x="261" width="154" height="30" as="geometry">
                        <mxRectangle width="154" height="30" as="alternateBounds"/>
                    </mxGeometry>
                </mxCell>
                <mxCell id="82" style="shape=partialRectangle;html=1;whiteSpace=wrap;collapsible=0;dropTarget=0;pointerEvents=0;fillColor=none;top=0;left=0;bottom=0;right=0;points=[[0,0.5],[1,0.5]];portConstraint=eastwest;fontColor=#000000;" vertex="1" parent="69">
                    <mxGeometry y="143" width="415" height="30" as="geometry"/>
                </mxCell>
                <mxCell id="83" value="Static and ephemeral IP addresses attached to forwarding rules" style="shape=partialRectangle;html=1;whiteSpace=wrap;connectable=0;fillColor=none;top=0;left=0;bottom=0;right=0;overflow=hidden;pointerEvents=1;fontColor=#000000;" vertex="1" parent="82">
                    <mxGeometry width="261" height="30" as="geometry">
                        <mxRectangle width="261" height="30" as="alternateBounds"/>
                    </mxGeometry>
                </mxCell>
                <mxCell id="84" value="No charge" style="shape=partialRectangle;html=1;whiteSpace=wrap;connectable=0;fillColor=none;top=0;left=0;bottom=0;right=0;overflow=hidden;pointerEvents=1;fontColor=#000000;" vertex="1" parent="82">
                    <mxGeometry x="261" width="154" height="30" as="geometry">
                        <mxRectangle width="154" height="30" as="alternateBounds"/>
                    </mxGeometry>
                </mxCell>
                <mxCell id="97" style="edgeStyle=elbowEdgeStyle;html=1;exitX=1;exitY=0.5;exitDx=0;exitDy=0;entryX=0;entryY=0.05;entryDx=0;entryDy=0;entryPerimeter=0;fontColor=#FFFFFF;" edge="1" parent="1" source="29" target="69">
                    <mxGeometry relative="1" as="geometry">
                        <Array as="points">
                            <mxPoint x="700" y="830"/>
                        </Array>
                    </mxGeometry>
                </mxCell>
                <mxCell id="98" value="&lt;font color=&quot;#000000&quot;&gt;us-west4:&lt;/font&gt;&lt;span style=&quot;color: rgba(0 , 0 , 0 , 0.66) ; font-family: &amp;#34;roboto&amp;#34; ; font-size: 13px ; text-align: left ; background-color: rgba(161 , 194 , 250 , 0.16)&quot;&gt;10.182.0.0/20&lt;/span&gt;" style="text;html=1;strokeColor=none;fillColor=none;align=center;verticalAlign=middle;whiteSpace=wrap;rounded=0;fontColor=#FFFFFF;" vertex="1" parent="1">
                    <mxGeometry x="150" y="1060" width="190" height="30" as="geometry"/>
                </mxCell>
                <mxCell id="99" value="&lt;font color=&quot;#000000&quot;&gt;euro-west1:&lt;/font&gt;&lt;span style=&quot;color: rgba(0 , 0 , 0 , 0.66) ; font-family: &amp;#34;roboto&amp;#34; ; font-size: 13px ; text-align: left ; background-color: rgb(255 , 255 , 255)&quot;&gt;10.132.0.0/20&lt;/span&gt;" style="text;html=1;strokeColor=none;fillColor=none;align=center;verticalAlign=middle;whiteSpace=wrap;rounded=0;fontColor=#FFFFFF;" vertex="1" parent="1">
                    <mxGeometry x="150" y="1090" width="190" height="30" as="geometry"/>
                </mxCell>
            </root>
        </mxGraphModel>
    </diagram>
</mxfile>